# xmcd
# 
# Track frame offsets:
#     150
#     27220
#     42242
#     65483
#     88503
#     106219
#     126219
#     150287
#     169192
#     186900
#     209706
# 
# Disc length: 3070
# 
# Revision: 0
# Processed by: cddbd v1.5.2PL0 Copyright (c) Steve Scherf et al.
# Submitted via: fre:ac v1.0.17
# 
DISCID=900bfc0b
DTITLE=五十一 - BLUSE ON THE ROAD
DYEAR=2010
DGENRE=Blues
TTITLE0=Bluse On The Road
TTITLE1=埃風
TTITLE2=汗にまみれ
TTITLE3=心に唄を
TTITLE4=鉱夫の祈り
TTITLE5=世界の果てで
TTITLE6=The Weight
TTITLE7=旅人の唄
TTITLE8=Mississippi You're On My Mind
TTITLE9=You Are My Sunshine
TTITLE10=遙かなる道 (Instrumental)
EXTD=
EXTT0=
EXTT1=
EXTT2=
EXTT3=
EXTT4=
EXTT5=
EXTT6=
EXTT7=
EXTT8=
EXTT9=
EXTT10=
PLAYORDER=
